<?xml version="1.0" encoding="utf-8"?>
<!-- Generator: Adobe Illustrator 21.0.0, SVG Export Plug-In . SVG Version: 6.00 Build 0)  -->
<svg version="1.1" id="Layer_1" xmlns="http://www.w3.org/2000/svg" xmlns:xlink="http://www.w3.org/1999/xlink" x="0px" y="0px"
	 viewBox="0 0 469 59" style="enable-background:new 0 0 469 59;" xml:space="preserve">
<style type="text/css">
	.st0{fill:#FFFFFF;}
	.st1{fill:#EA991B;}
	.st2{fill:#93BA2F;}
	.st3{fill:#4DA4E0;}
	.st4{fill:#D83128;}
</style>
<g>
	<path class="st0" d="M36,16.6c0-0.7,0.1-4.3,2-7.7c1.9-3.2,5.8-6.9,13.7-7v0c0,0,0,0,0,0c0,0,0,0,0,0v0c8,0,11.9,3.7,13.7,7
		c2,3.4,2,7,2,7.7v11c0,0.7-0.1,4.3-2,7.7c-1.9,3.2-5.7,6.9-13.7,7l0,0c0,0,0,0,0,0c0,0,0,0,0,0l0,0c-8,0-11.9-3.7-13.7-7
		c-2-3.4-2-7-2-7.7V16.6z M43.9,27.9c0,1.7,1.1,7.4,7.9,7.4c6.8,0,7.9-5.8,7.9-7.4V16.2c0-1.6-1.1-7.4-7.9-7.4
		c-6.8,0-7.9,5.8-7.9,7.4V27.9z"/>
	<path class="st0" d="M33.6,34.3c0-0.2-0.1-0.4-0.3-0.5c0,0,0,0,0,0l0,0c0,0,0,0,0,0l-6-3c0,0,0,0,0,0c-0.1,0-0.2-0.1-0.2-0.1
		c-0.2,0-0.4,0.1-0.5,0.3c0,0,0,0,0,0c0,0,0,0,0,0c0,0,0,0,0,0c-1,2-3,4.2-7.1,4.2c-6.8,0-7.9-5.8-7.9-7.4V16.2
		c0-1.6,1.1-7.4,7.9-7.4c4.2,0,6.2,2.2,7.1,4.3c0.1,0.2,0.3,0.4,0.5,0.4c0.1,0,0.2,0,0.3-0.1c0,0,0,0,0,0l6-3.1c0,0,0,0,0,0
		c0.2-0.1,0.3-0.3,0.3-0.5c0-0.1,0-0.2,0-0.2l0,0c-0.1-0.2-0.2-0.5-0.3-0.7c-1.9-3.2-5.7-6.9-13.7-7v0c0,0,0,0,0,0c0,0,0,0,0,0v0
		c-8,0-11.9,3.7-13.7,7c-2,3.4-2,7-2,7.7v11c0,0.7,0.1,4.3,2,7.7c1.9,3.2,5.7,6.9,13.7,7l0,0c0,0,0,0,0,0c0,0,0,0,0,0l0,0
		c8,0,11.9-3.7,13.7-7c0.1-0.2,0.2-0.5,0.4-0.7c0,0,0,0,0,0C33.6,34.5,33.6,34.4,33.6,34.3z"/>
	<path class="st0" d="M104.5,40.9V3.2l0,0c0,0,0,0,0,0c0-0.3-0.2-0.5-0.5-0.6c0,0,0,0,0,0h-6.8c0,0,0,0,0,0v0
		c-0.3,0-0.6,0.2-0.6,0.6c0,0,0,0,0,0l0,0v13.4h0v11.3c0,1.7-1.1,7.4-7.9,7.4c-6.8,0-7.9-5.8-7.9-7.4V3.2h0c0-0.3-0.3-0.6-0.6-0.6
		c0,0,0,0,0,0l0,0c0,0,0,0,0,0l-6.8,0c0,0,0,0,0,0c-0.3,0-0.6,0.2-0.6,0.5c0,0,0,0,0,0v24.4c0,0.7,0.1,4.3,1.8,7.7
		c1.7,3.2,5.2,6.9,12.4,7l0,0c0,0,0,0,0,0c0,0,0,0,0,0l0,0c4.8,0,7.9-2,10-4V41h0c0,0.3,0.3,0.5,0.6,0.5c0,0,0,0,0,0v0h6.3l0,0l0,0
		C104.3,41.5,104.5,41.3,104.5,40.9C104.5,40.9,104.5,40.9,104.5,40.9z"/>
	<path class="st1" d="M176.9,16.2c0-3.1-1.5-10.4-8.6-13.2c-7.2-2.9-16.7,0.6-19.1,1.6c0,0,0,0,0,0c-0.2,0.1-0.4,0.3-0.4,0.5
		c0,0.1,0,0.2,0.1,0.3c0,0,0,0,0,0l1.9,5.5c0,0,0,0,0,0c0.1,0.2,0.3,0.4,0.5,0.4c0.1,0,0.1,0,0.2,0l0,0c2.6-1.4,9.7-3.7,14.1-1.8
		c4.2,1.9,3.8,6.4,3.9,6.9c0,0,0,0.1,0,0.2v0.9c-2-1.5-4.9-2.9-8.9-2.9l0,0c0,0,0,0,0,0c0,0,0,0,0,0l0,0c-7.2,0-10.7,3.5-12.4,6.6
		c-1.8,3.2-1.8,6.6-1.8,7.3v0c0,0.7,0.1,4.1,1.8,7.3c1.7,3.1,5.2,6.5,12.4,6.6l0,0c0,0,0,0,0,0c0,0,0,0,0,0l0,0
		c4.2,0,7.1-1.5,9.2-3.1V41c0,0,0,0,0,0c0,0,0,0,0,0v0l0,0c0,0.3,0.3,0.5,0.6,0.5c0,0,0,0,0,0c0,0,0,0,0,0h6c0,0,0,0,0,0
		c0,0,0,0,0,0c0.3,0,0.5-0.2,0.6-0.5l0,0V20.5h0v-4C176.9,16.4,176.9,16.3,176.9,16.2z M169.6,28.5c0,1.5-1.1,7-7.7,7
		c-6.6,0-7.7-5.4-7.7-7v-0.6c0-1.5,1.1-7,7.7-7c6.6,0,7.7,5.4,7.7,7V28.5z"/>
	<path class="st2" d="M214.8,16.6c0-0.7-0.1-4.3-1.8-7.7c-1.7-3.3-5.2-6.9-12.4-6.9v0c0,0,0,0,0,0c0,0,0,0,0,0v0
		c-4.7,0-7.9,1.9-9.9,3.9V3.2c0,0,0,0,0,0c0,0,0,0,0,0c0-0.3-0.2-0.5-0.5-0.6c0,0,0,0,0,0h-6.4c0,0,0,0,0,0c-0.3,0-0.5,0.3-0.5,0.6
		c0,0,0,0,0,0c0,0,0,0,0,0V41c0,0,0,0,0,0c0,0.3,0.3,0.5,0.5,0.5c0,0,0,0,0,0c0,0,0,0,0,0h6.8c0,0,0,0,0,0l0,0
		c0.3,0,0.5-0.2,0.5-0.5c0,0,0,0,0,0v0c0,0,0,0,0,0c0,0,0,0,0,0V15.8c0.2-2,1.6-7,7.9-7c6.8,0,7.9,5.8,7.9,7.4v24.7c0,0,0,0,0,0
		c0,0,0,0,0,0c0,0.3,0.3,0.6,0.6,0.6c0,0,0,0,0,0h6.8l0,0c0,0,0,0,0,0h0c0,0,0,0,0,0c0.3,0,0.5-0.3,0.5-0.6c0,0,0,0,0,0v0V16.6z"/>
	<path class="st3" d="M256,2.6c0-0.3-0.2-0.5-0.5-0.6c0,0,0,0,0,0c-4.1-0.1-6.7,1.6-8.4,3.4c-2.3-2-5.8-3.6-11.2-3.6v0c0,0,0,0,0,0
		c0,0,0,0,0,0v0c-8,0-11.9,3.5-13.7,6.6c-1.9,3.3-2,6.7-2,7.4v0.4c0,0.7,0.1,4.1,2,7.4c0.8,1.4,2.1,2.9,3.9,4.1
		c-3,1.7-5.7,4.8-5.7,10.3v2.9c0,0,0,0,0,0c0,0.3,0.2,0.5,0.5,0.6c0,0,0,0,0,0c0,0,0,0,0,0h22.9c2.7,0,4.1,1.8,4.5,3.5
		c0.5,2.2-0.3,5.1-4,7c0,0,0,0,0,0c-0.2,0.1-0.4,0.3-0.4,0.5c0,0.1,0,0.2,0.1,0.3c0,0,0,0,0,0l3,5.4c0,0,0,0,0,0
		c0.1,0.2,0.3,0.3,0.5,0.3c0.1,0,0.2,0,0.2-0.1c0,0,0,0,0,0c6.9-3.5,8.4-10.2,7.3-15.1c-1.2-5.3-5.7-8.9-11.3-8.9l-15.8,0.4
		c0.9-4.8,6.4-4.7,7.1-4.7l0,0c0.3,0,0.5,0,0.8,0l0,0c0,0,0,0,0,0c0,0,0,0,0,0l0,0c8,0,11.9-3.5,13.7-6.6c2-3.2,2-6.7,2-7.4v-0.4
		c0-0.6-0.1-3.1-1.3-5.9c1-0.7,2.7-1.4,5.1-1.3l0,0c0,0,0,0,0,0c0.3,0,0.5-0.2,0.6-0.5l0,0V2.6L256,2.6C256,2.7,256,2.7,256,2.6z
		 M243.7,16.3c0,1.5-1.1,7-7.9,7c-6.8,0-7.9-5.5-7.9-7v-0.5c0-1.5,1.1-7,7.9-7c6.8,0,7.9,5.5,7.9,7V16.3z"/>
	<path class="st4" d="M140.4,8.9c-1.7-3.2-5.2-6.9-12.4-7v0c0,0,0,0,0,0c0,0,0,0,0,0v0c-4.7,0-7.9,2-10,4V3.2h0c0,0,0,0,0,0
		c0-0.3-0.3-0.6-0.6-0.6c0,0,0,0,0,0c0,0,0,0,0,0h-6.3c0,0,0,0,0,0c0,0,0,0,0,0c-0.3,0-0.6,0.2-0.6,0.6c0,0,0,0,0,0c0,0,0,0,0,0
		v53.9l0,0c0,0.3,0.2,0.5,0.6,0.5c0,0,0,0,0,0h6.8c0,0,0,0,0,0c0,0,0,0,0,0h0c0,0,0,0,0,0c0.3,0,0.5-0.2,0.5-0.5c0,0,0,0,0,0v0
		c0,0,0,0,0,0s0,0,0,0V38.7c2.1,1.8,5.1,3.5,9.4,3.5l0,0c0,0,0,0,0,0c0,0,0,0,0,0l0,0c7.2,0,10.7-3.7,12.4-7c1.8-3.4,1.8-7,1.8-7.7
		v-11C142.2,15.9,142.2,12.3,140.4,8.9z M134.3,27.9c0,1.7-1.1,7.4-7.9,7.4c-6.8,0-7.9-5.8-7.9-7.4V16.3c0-1.7,1.1-7.4,7.9-7.4
		c6.8,0,7.9,5.8,7.9,7.4V27.9z"/>
</g>
<g>
	<g>
		<path class="st3" d="M274.7,30.9c0-6.9,4.2-11.2,8.9-11.2c2.4,0,3.9,0.9,5.6,2.4l-0.2-3.5v-7.9h4.3v30.9h-3.5l-0.4-2.4h-0.1
			c-1.5,1.6-3.7,2.9-6,2.9C278.1,42,274.7,38,274.7,30.9z M288.9,35.7V25.3c-1.5-1.4-3-1.9-4.5-1.9c-2.9,0-5.2,2.8-5.2,7.4
			c0,4.8,1.8,7.5,5.1,7.5C286,38.3,287.4,37.5,288.9,35.7z"/>
		<path class="st3" d="M297.4,30.9c0-6.9,4.6-11.2,9.4-11.2c5.5,0,8.4,4.1,8.4,10.1c0,0.9-0.1,1.7-0.2,2.2h-13.4
			c0.3,4.1,2.8,6.5,6.4,6.5c1.8,0,3.4-0.6,4.9-1.6l1.5,2.8c-1.9,1.3-4.3,2.2-7,2.2C301.8,42,297.4,37.9,297.4,30.9z M311.5,29
			c0-3.7-1.6-5.8-4.6-5.8c-2.6,0-4.9,2.1-5.3,5.8H311.5z"/>
		<path class="st3" d="M317,20.2h4.4l3.5,11.5c0.6,2.1,1.2,4.3,1.8,6.3h0.2c0.6-2.1,1.2-4.3,1.8-6.3l3.5-11.5h4.2l-7.1,21.3h-5
			L317,20.2z"/>
		<path class="st3" d="M338.6,30.9c0-6.9,4.6-11.2,9.4-11.2c5.5,0,8.4,4.1,8.4,10.1c0,0.9-0.1,1.7-0.2,2.2h-13.4
			c0.3,4.1,2.8,6.5,6.4,6.5c1.8,0,3.4-0.6,4.9-1.6l1.5,2.8c-1.9,1.3-4.3,2.2-7,2.2C343,42,338.6,37.9,338.6,30.9z M352.7,29
			c0-3.7-1.6-5.8-4.6-5.8c-2.6,0-4.9,2.1-5.3,5.8H352.7z"/>
		<path class="st3" d="M360.3,36.5V10.7h4.3v26.1c0,1.2,0.5,1.6,1.1,1.6c0.2,0,0.3,0,0.7-0.1l0.6,3.4c-0.5,0.2-1.3,0.3-2.3,0.3
			C361.5,42,360.3,40,360.3,36.5z"/>
		<path class="st3" d="M369.1,30.9c0-7.1,4.6-11.2,9.7-11.2s9.7,4.1,9.7,11.2c0,7-4.6,11.1-9.7,11.1S369.1,38,369.1,30.9z
			 M384.1,30.9c0-4.5-2-7.5-5.3-7.5c-3.2,0-5.3,3-5.3,7.5c0,4.5,2,7.5,5.3,7.5C382.1,38.4,384.1,35.4,384.1,30.9z"/>
		<path class="st3" d="M392.7,20.2h3.5l0.3,2.3h0.1c1.8-1.5,4.1-2.9,6.3-2.9c5.3,0,8.2,4.3,8.2,10.8c0,7.3-4.2,11.5-8.9,11.5
			c-1.8,0-3.7-0.9-5.4-2.4l0.1,3.6v6.9h-4.3V20.2z M406.7,30.6c0-4.5-1.4-7.2-4.8-7.2c-1.6,0-3.2,0.9-4.9,2.6v10.4
			c1.6,1.4,3.2,1.9,4.5,1.9C404.5,38.3,406.7,35.6,406.7,30.6z"/>
		<path class="st3" d="M413.9,30.9c0-6.9,4.6-11.2,9.4-11.2c5.5,0,8.4,4.1,8.4,10.1c0,0.9-0.1,1.7-0.2,2.2h-13.4
			c0.3,4.1,2.8,6.5,6.4,6.5c1.8,0,3.4-0.6,4.9-1.6l1.5,2.8c-1.9,1.3-4.3,2.2-7,2.2C418.4,42,413.9,37.9,413.9,30.9z M428.1,29
			c0-3.7-1.6-5.8-4.6-5.8c-2.6,0-4.9,2.1-5.3,5.8H428.1z"/>
		<path class="st3" d="M435.7,20.2h3.5l0.3,3.8h0.1c1.5-2.7,3.6-4.4,5.9-4.4c1,0,1.7,0.2,2.3,0.5l-0.8,3.9c-0.7-0.2-1.2-0.3-2.1-0.3
			c-1.7,0-3.7,1.2-5,4.6v13.3h-4.3V20.2z"/>
		<path class="st3" d="M448.7,39.1l2-2.9c1.8,1.5,3.6,2.4,5.9,2.4c2.5,0,3.6-1.2,3.6-2.9c0-1.9-2.3-2.8-4.6-3.7
			c-2.7-1.1-5.9-2.6-5.9-6.2c0-3.6,2.8-6.2,7.3-6.2c2.8,0,5,1.2,6.7,2.5l-2,2.7c-1.4-1.1-2.9-1.9-4.6-1.9c-2.3,0-3.3,1.2-3.3,2.6
			c0,1.8,2.1,2.5,4.4,3.4c2.9,1.1,6.1,2.4,6.1,6.5c0,3.6-2.7,6.5-7.8,6.5C453.6,42,450.7,40.8,448.7,39.1z"/>
	</g>
</g>
</svg>
