<?xml version="1.0" encoding="utf-8"?>
<!-- Generator: Adobe Illustrator 21.0.0, SVG Export Plug-In . SVG Version: 6.00 Build 0)  -->
<svg version="1.1" id="Layer_1" xmlns="http://www.w3.org/2000/svg" xmlns:xlink="http://www.w3.org/1999/xlink" x="0px" y="0px"
	 viewBox="0 0 1071 136" style="enable-background:new 0 0 1071 136;" xml:space="preserve">
<style type="text/css">
	.st0{fill:#FFFFFF;}
	.st1{fill:#EA991B;}
	.st2{fill:#93BA2F;}
	.st3{fill:#4DA4E0;}
	.st4{fill:#D83128;}
</style>
<g>
	<path class="st0" d="M59.8,58.5c0-1.3,0.1-7.7,3.6-13.8c3.3-5.8,10.3-12.4,24.6-12.4v0c0,0,0.1,0,0.1,0c0,0,0,0,0.1,0v0
		c14.3,0.1,21.3,6.6,24.6,12.4c3.5,6.1,3.6,12.5,3.6,13.8v19.7c0,1.3-0.1,7.7-3.6,13.8c-3.3,5.8-10.3,12.4-24.6,12.4l0,0
		c0,0-0.1,0-0.1,0c0,0-0.1,0-0.1,0l0,0c-14.3,0-21.3-6.6-24.6-12.4c-3.5-6.1-3.6-12.5-3.6-13.8V58.5z M74,78.7c0,3,2,13.3,14.1,13.3
		c12.1-0.1,14.1-10.4,14.1-13.3V57.9c0-3-2-13.3-14.1-13.3C76,44.6,74,55,74,57.9V78.7z"/>
	<path class="st0" d="M55.5,90.3c0-0.4-0.2-0.7-0.6-0.9c0,0,0,0,0,0l0,0c0,0,0,0,0,0L44.2,84c0,0,0,0,0,0c-0.1-0.1-0.3-0.1-0.4-0.1
		c-0.4,0-0.7,0.2-0.9,0.5c0,0,0,0,0,0c0,0,0,0.1,0,0.1c0,0,0,0,0,0c-1.7,3.7-5.3,7.5-12.7,7.5C18,92,16,81.7,16,78.7V57.9
		c0-3,2-13.3,14.1-13.3c7.5,0,11.1,4,12.8,7.7c0.1,0.4,0.5,0.6,0.9,0.6c0.2,0,0.3,0,0.4-0.1c0,0,0,0,0,0L55,47.2c0,0,0,0,0,0
		c0.3-0.2,0.5-0.5,0.5-0.9c0-0.1,0-0.3-0.1-0.4l0,0c-0.2-0.4-0.4-0.8-0.6-1.2c-3.3-5.8-10.3-12.4-24.6-12.4v0c0,0,0,0-0.1,0
		c0,0,0,0-0.1,0v0C15.7,32.3,8.8,38.9,5.4,44.7c-3.5,6.1-3.6,12.5-3.6,13.8v19.7c0,1.3,0.1,7.7,3.6,13.8
		c3.3,5.8,10.3,12.4,24.6,12.4l0,0c0,0,0.1,0,0.1,0c0,0,0.1,0,0.1,0l0,0c14.3,0,21.3-6.6,24.6-12.4c0.2-0.4,0.4-0.8,0.7-1.3
		c0,0,0,0,0,0C55.5,90.6,55.5,90.5,55.5,90.3z"/>
	<path class="st0" d="M182.5,102.1V34.5l0,0c0,0,0,0,0,0c0-0.5-0.4-1-1-1c0,0,0,0,0,0h-12.2c0,0,0,0,0,0v0c-0.6,0-1,0.4-1,1
		c0,0,0,0,0,0.1l0,0v23.9h0v20.3c0,3-2,13.3-14.1,13.3c-12.1,0-14.1-10.4-14.1-13.3V34.6h0c0-0.6-0.5-1-1-1c0,0,0,0,0,0l0,0
		c0,0,0,0,0,0l-12.2,0c0,0,0,0,0,0c-0.5,0-1,0.4-1,1c0,0,0,0,0,0v43.6c0,1.3,0.1,7.7,3.3,13.8c3,5.8,9.3,12.4,22.1,12.4l0,0
		c0,0,0.1,0,0.1,0c0,0,0,0,0.1,0l0,0c8.5,0,14.1-3.5,17.8-7.1v4.8h0c0,0.5,0.5,1,1,1c0,0,0,0,0.1,0v0h11.3l0,0l0,0
		C182.1,103.2,182.5,102.7,182.5,102.1C182.5,102.1,182.5,102.1,182.5,102.1z"/>
	<path class="st1" d="M312.1,57.9c0-5.5-2.8-18.5-15.4-23.7c-12.8-5.2-29.9,1.1-34.1,2.9c0,0,0,0,0,0c-0.4,0.1-0.7,0.5-0.7,0.9
		c0,0.2,0.1,0.3,0.1,0.5c0,0,0,0,0,0l3.4,9.8c0,0,0,0,0,0c0.1,0.4,0.5,0.6,0.9,0.6c0.1,0,0.3,0,0.4-0.1l0,0
		c4.7-2.4,17.4-6.7,25.2-3.1c7.6,3.4,6.9,11.5,6.9,12.3c0,0.1,0,0.2,0,0.3V60c-3.7-2.7-8.8-5.2-16-5.2l0,0c0,0,0,0-0.1,0
		c0,0,0,0-0.1,0l0,0c-12.9,0-19.1,6.3-22.2,11.8c-3.1,5.8-3.3,11.8-3.3,13.1v0c0,1.2,0.1,7.3,3.3,13.1c3,5.5,9.3,11.7,22.2,11.8l0,0
		c0,0,0,0,0.1,0c0,0,0.1,0,0.1,0l0,0c7.5,0,12.7-2.7,16.4-5.6v3.3c0,0,0,0,0,0c0,0,0,0,0,0v0l0,0c0,0.5,0.5,1,1,1c0,0,0,0,0.1,0
		c0,0,0,0,0,0h10.7c0,0,0,0,0,0c0,0,0,0,0,0c0.5,0,1-0.4,1-1l0,0V65.5h0v-7.2C312.1,58.2,312.1,58,312.1,57.9z M298.9,79.9
		c0,2.8-1.9,12.5-13.7,12.5c-11.8,0-13.7-9.7-13.7-12.5v-1.1c0-2.8,1.9-12.5,13.7-12.5c11.8,0,13.7,9.7,13.7,12.5V79.9z"/>
	<path class="st2" d="M379.9,58.5c0-1.3-0.1-7.7-3.3-13.8c-3-5.8-9.3-12.4-22.2-12.4v0c0,0,0,0-0.1,0c0,0,0,0-0.1,0v0
		c-8.5,0-14.1,3.5-17.8,7.1v-4.7c0,0,0,0,0,0c0,0,0,0,0-0.1c0-0.5-0.4-1-1-1c0,0,0,0,0,0h-11.4c0,0,0,0,0,0c-0.5,0-1,0.5-1,1
		c0,0,0,0,0,0.1c0,0,0,0,0,0v67.7c0,0,0,0,0,0c0,0.5,0.5,0.9,1,0.9c0,0,0,0,0.1,0c0,0,0,0,0,0h12.2c0,0,0,0,0,0l0,0
		c0.5,0,0.9-0.4,1-0.9c0,0,0,0,0,0v-0.1c0,0,0,0,0,0c0,0,0,0,0,0v-45c0.3-3.6,2.8-12.5,14.1-12.6c12.1,0,14.1,10.4,14.1,13.3v44.2
		c0,0,0,0,0,0c0,0,0,0,0,0.1c0,0.6,0.5,1,1,1c0,0,0,0,0,0h12.3l0,0c0,0,0,0,0,0h0c0,0,0,0,0,0c0.5,0,0.9-0.5,0.9-1c0,0,0,0,0-0.1v0
		V58.5z"/>
	<path class="st3" d="M453.7,33.6c0-0.5-0.4-1-0.9-1c0,0,0,0,0,0c-7.3-0.2-12,2.8-15.1,6.1c-4.1-3.6-10.4-6.4-20.1-6.5v0
		c0,0-0.1,0-0.1,0c0,0-0.1,0-0.1,0v0c-14.3,0.1-21.3,6.3-24.6,11.9c-3.5,5.8-3.6,12-3.6,13.2V58c0,1.2,0.2,7.4,3.7,13.2
		c1.5,2.5,3.7,5.1,7,7.3c-5.4,3.1-10.1,8.6-10.1,18.4v5.2c0,0,0,0,0,0c0,0.5,0.4,1,1,1c0,0,0,0,0,0c0,0,0,0,0,0h40.9
		c4.9,0,7.4,3.2,8.1,6.3c0.9,3.9-0.6,9.1-7.2,12.6c0,0,0,0,0,0c-0.4,0.1-0.7,0.5-0.7,0.9c0,0.2,0.1,0.4,0.2,0.5c0,0,0,0,0,0l5.3,9.7
		c0,0,0,0,0,0c0.2,0.3,0.5,0.6,0.9,0.6c0.2,0,0.3,0,0.4-0.1c0,0,0,0,0,0c12.4-6.3,15.1-18.2,13.1-27c-2.1-9.6-10.3-16-20.2-16
		l-28.3,0.7c1.6-8.5,11.5-8.4,12.7-8.3l0,0c0.5,0,0.9,0,1.4,0l0,0c0,0,0.1,0,0.1,0c0,0,0.1,0,0.1,0l0,0c14.3,0,21.2-6.3,24.6-11.9
		c3.5-5.8,3.7-11.9,3.7-13.2v-0.7c0-1.1-0.1-5.6-2.3-10.5c1.9-1.3,4.8-2.5,9.1-2.3l0,0c0,0,0,0,0,0c0.5,0,1-0.4,1-0.9l0,0V33.6
		L453.7,33.6C453.7,33.6,453.7,33.6,453.7,33.6z M431.6,58.1c0,2.7-2,12.6-14.1,12.6c-12.1,0-14.1-9.9-14.1-12.6v-0.9
		c0-2.7,2-12.6,14.1-12.6c12.1,0,14.1,9.9,14.1,12.6V58.1z"/>
	<path class="st4" d="M246.7,44.7c-3-5.8-9.3-12.4-22.1-12.4v0c0,0,0,0-0.1,0c0,0,0,0-0.1,0v0c-8.5,0-14.1,3.5-17.8,7.1v-4.9h0
		c0,0,0,0,0,0c0-0.6-0.5-1-1-1c0,0,0,0-0.1,0c0,0,0,0,0,0h-11.2c0,0,0,0,0,0c0,0,0,0-0.1,0c-0.6,0-1,0.4-1,1c0,0,0,0,0,0
		c0,0,0,0,0,0v96.5l0,0c0,0.5,0.4,1,1,1c0,0,0,0,0,0h12.1c0,0,0,0,0.1,0c0,0,0,0,0,0h0.1c0,0,0,0,0,0c0.5-0.1,0.8-0.4,0.8-0.9
		c0,0,0,0,0,0v0c0,0,0,0,0,0s0,0,0,0V98.2c3.7,3.2,9.1,6.3,16.9,6.3l0,0c0,0,0,0,0.1,0c0,0,0,0,0.1,0l0,0c12.9,0,19.1-6.6,22.1-12.4
		c3.2-6.1,3.3-12.5,3.3-13.8V58.5C250,57.2,249.9,50.8,246.7,44.7z M235.8,78.8c0,3-2,13.3-14.1,13.3c-12.1,0-14.1-10.4-14.1-13.3
		V58c0-3,2-13.3,14.1-13.3c12.1,0,14.1,10.4,14.1,13.3V78.8z"/>
</g>
<g>
	<g>
		<path class="st3" d="M538.2,104c-1.2,0-1.8-0.7-1.8-2v-4.8c-1.6,2.3-4,4.3-7.2,5.9c-3.2,1.6-6.3,2.4-9.6,2.4
			c-4.4,0-8.3-0.9-11.7-2.6c-3.4-1.7-6.3-4.2-8.7-7.4c-2.4-3.2-4.2-7.1-5.5-11.7c-1.3-4.6-1.9-9.7-1.9-15.5c0-5.6,0.6-10.6,1.9-15.2
			c1.3-4.5,3.1-8.4,5.5-11.5c2.4-3.2,5.3-5.6,8.7-7.4c3.4-1.7,7.3-2.6,11.6-2.6c3.2,0,6.3,0.7,9.2,2c2.9,1.3,5.4,3.2,7.6,5.6V3.6
			c0-0.7,0.1-1.1,0.3-1.3c0.2-0.2,0.6-0.3,1.2-0.3h9.9c1,0,1.6,0.5,1.6,1.6V102c0,0.7-0.2,1.2-0.6,1.5c-0.4,0.3-0.8,0.5-1.3,0.5
			H538.2z M521,44.5c-5,0-8.9,2.1-11.5,6.3c-2.7,4.2-4,10.1-4,17.6c0,8.2,1.4,14.3,4.1,18.3c2.7,4.1,6.6,6.1,11.4,6.1
			c2.1,0,4.1-0.5,5.9-1.6c1.9-1.1,3.5-2.7,4.9-4.7c1.4-2.1,2.5-4.6,3.3-7.7c0.8-3,1.2-6.5,1.2-10.4c0-8.1-1.4-14.1-4.1-18
			C529.6,46.5,525.8,44.5,521,44.5z"/>
		<path class="st3" d="M617.3,72.3c0,0.7-0.2,1.2-0.5,1.5c-0.4,0.3-0.7,0.5-1.2,0.5h-39.9c0.4,5.6,2.1,10.2,5.1,13.7
			c3,3.5,7.1,5.3,12.3,5.3c2.7,0,5.7-0.4,9.1-1.1c3.4-0.7,6.5-1.9,9.3-3.7c0.6-0.3,0.9-0.3,1.1,0.1c0.2,0.4,0.2,1,0.2,1.6v8.6
			c0,0.8-0.1,1.3-0.4,1.8c-0.2,0.4-0.7,0.8-1.5,1.3c-2.4,1.3-5.3,2.3-8.6,2.9c-3.3,0.6-6.6,0.9-10,0.9c-10,0-17.6-3.1-22.7-9.3
			C564.5,90.1,562,81,562,69c0-4.5,0.6-8.9,1.7-13.3c1.1-4.3,2.9-8.2,5.2-11.6c2.3-3.4,5.2-6.2,8.8-8.3c3.6-2.1,7.8-3.1,12.6-3.1
			c4.9,0,9.1,1,12.6,2.9c3.4,1.9,6.2,4.5,8.4,7.8c2.2,3.3,3.8,7,4.7,11.4c1,4.3,1.5,9,1.5,13.9c0,0.6,0,1.3-0.1,2
			C617.3,71.4,617.3,72,617.3,72.3z M590.7,44.8c-2.2,0-4.1,0.5-5.8,1.5c-1.7,1-3.2,2.3-4.4,3.9c-1.2,1.6-2.2,3.4-3,5.5
			c-0.8,2.1-1.3,4.2-1.6,6.3h27.8c0-1.7-0.3-3.5-0.8-5.5c-0.5-2-1.3-3.9-2.4-5.6c-1.1-1.7-2.4-3.1-4-4.3
			C594.9,45.4,593,44.8,590.7,44.8z"/>
		<path class="st3" d="M657.8,103.4c-0.2,0.1-0.5,0.2-1,0.2h-10.4c-0.5,0-0.8-0.1-1-0.2c-0.2-0.1-0.4-0.4-0.5-0.9L622.7,36
			c-0.2-0.4-0.2-0.8,0-1c0.2-0.2,0.7-0.4,1.6-0.4h10.6c0.4,0,0.7,0.1,1,0.2c0.2,0.1,0.4,0.4,0.6,0.8l15.2,47.2l15-47.2
			c0.2-0.4,0.4-0.7,0.7-0.8c0.3-0.1,0.6-0.2,1-0.2H679c0.9,0,1.4,0.1,1.6,0.4c0.2,0.3,0.2,0.6,0,1l-22.3,66.4
			C658.1,102.9,657.9,103.2,657.8,103.4z"/>
		<path class="st3" d="M741.8,72.3c0,0.7-0.2,1.2-0.5,1.5c-0.4,0.3-0.7,0.5-1.2,0.5h-39.9c0.4,5.6,2.1,10.2,5.1,13.7
			c3,3.5,7.1,5.3,12.3,5.3c2.7,0,5.7-0.4,9.1-1.1c3.4-0.7,6.5-1.9,9.3-3.7c0.6-0.3,0.9-0.3,1.1,0.1c0.2,0.4,0.2,1,0.2,1.6v8.6
			c0,0.8-0.1,1.3-0.4,1.8c-0.2,0.4-0.7,0.8-1.5,1.3c-2.4,1.3-5.3,2.3-8.6,2.9c-3.3,0.6-6.6,0.9-10,0.9c-10,0-17.6-3.1-22.7-9.3
			c-5.1-6.2-7.7-15.3-7.7-27.3c0-4.5,0.6-8.9,1.7-13.3c1.1-4.3,2.9-8.2,5.2-11.6c2.3-3.4,5.2-6.2,8.8-8.3c3.6-2.1,7.8-3.1,12.6-3.1
			c4.9,0,9.1,1,12.6,2.9c3.4,1.9,6.2,4.5,8.4,7.8c2.2,3.3,3.8,7,4.7,11.4c1,4.3,1.5,9,1.5,13.9c0,0.6,0,1.3-0.1,2
			C741.9,71.4,741.8,72,741.8,72.3z M715.3,44.8c-2.2,0-4.1,0.5-5.8,1.5c-1.7,1-3.2,2.3-4.4,3.9c-1.2,1.6-2.2,3.4-3,5.5
			c-0.8,2.1-1.3,4.2-1.6,6.3h27.8c0-1.7-0.3-3.5-0.8-5.5c-0.5-2-1.3-3.9-2.4-5.6c-1.1-1.7-2.4-3.1-4-4.3
			C719.5,45.4,717.5,44.8,715.3,44.8z"/>
		<path class="st3" d="M754.6,103.9c-0.9,0-1.3-0.5-1.3-1.5V3.9c0-0.4,0.1-0.8,0.4-1.1c0.3-0.3,0.6-0.4,1-0.4h10.2
			c0.4,0,0.7,0.1,1,0.4c0.3,0.3,0.4,0.6,0.4,1.1v98.5c0,0.4-0.1,0.8-0.4,1.1c-0.3,0.3-0.6,0.4-1,0.4H754.6z"/>
		<path class="st3" d="M832.6,94.2c-2.9,3.8-6.4,6.6-10.4,8.6c-4,2-8.6,2.9-13.7,2.9c-5.2,0-9.7-1-13.7-2.9c-4-1.9-7.3-4.5-9.9-7.9
			c-2.7-3.3-4.7-7.2-6-11.6c-1.3-4.4-2-9.1-2-14.1c0-5,0.7-9.7,2-14.1c1.3-4.4,3.3-8.3,6-11.6c2.7-3.3,6-5.9,9.9-7.8
			c3.9-1.9,8.5-2.9,13.8-2.9c5.2,0,9.7,1,13.7,2.9s7.3,4.5,9.9,7.8c2.7,3.3,4.7,7.1,6,11.6c1.3,4.4,2,9.1,2,14.1
			c0,4.9-0.6,9.5-1.9,13.8C836.9,87.3,835,91,832.6,94.2z M808.4,45c-3.2,0-5.9,0.7-8.2,2.1c-2.3,1.4-4.2,3.3-5.6,5.6
			c-1.5,2.3-2.5,4.9-3.3,7.8c-0.7,2.9-1.1,5.8-1.1,8.7c0,2.9,0.4,5.8,1.1,8.7c0.7,2.9,1.8,5.5,3.3,7.8c1.5,2.3,3.3,4.2,5.6,5.6
			c2.3,1.4,5,2.1,8.2,2.1c3.2,0,5.9-0.7,8.2-2.1c2.3-1.4,4.2-3.3,5.6-5.6c1.5-2.3,2.5-4.9,3.3-7.8c0.7-2.9,1.1-5.8,1.1-8.7
			c0-2.8-0.4-5.7-1.1-8.6c-0.7-2.9-1.8-5.5-3.3-7.8c-1.5-2.3-3.3-4.2-5.6-5.6C814.3,45.8,811.6,45,808.4,45z"/>
		<path class="st3" d="M881.3,106.7c-3.2,0-6.4-0.7-9.3-2.1c-3-1.4-5.5-3.4-7.5-5.8v22.4c0,0.7-0.1,1.1-0.2,1.3
			c-0.2,0.2-0.5,0.3-1.1,0.3h-10.1c-0.5,0-0.8-0.1-1.1-0.3c-0.2-0.2-0.4-0.6-0.4-1.3V36.4c0-1.3,0.6-2,1.8-2h9.3
			c1.1,0,1.7,0.7,1.7,2v4.5c2.3-2.4,4.8-4.3,7.6-5.7c2.8-1.3,5.9-2,9.2-2c4.4,0,8.3,0.9,11.7,2.6c3.4,1.7,6.3,4.1,8.7,7.3
			c2.4,3.2,4.2,7,5.5,11.6c1.3,4.6,1.9,9.7,1.9,15.5c0,5.6-0.6,10.6-1.9,15.1c-1.3,4.5-3.1,8.3-5.5,11.5c-2.4,3.2-5.3,5.6-8.7,7.3
			C889.5,105.8,885.6,106.7,881.3,106.7z M880,46c-2.1,0-4.1,0.5-5.9,1.6c-1.9,1-3.5,2.6-4.9,4.6c-1.4,2-2.5,4.6-3.4,7.5
			c-0.8,3-1.3,6.4-1.3,10.4c0,8.2,1.4,14.2,4.2,18.1c2.8,3.9,6.6,5.9,11.3,5.9c5,0,8.9-2.1,11.5-6.2c2.7-4.2,4-10.1,4-17.7
			c0-8.1-1.4-14.1-4.1-18.1C888.7,48,884.9,46,880,46z"/>
		<path class="st3" d="M974.6,72.3c0,0.7-0.2,1.2-0.5,1.5c-0.4,0.3-0.7,0.5-1.2,0.5H933c0.4,5.6,2.1,10.2,5.1,13.7
			c3,3.5,7.1,5.3,12.3,5.3c2.7,0,5.7-0.4,9.1-1.1c3.4-0.7,6.5-1.9,9.3-3.7c0.6-0.3,0.9-0.3,1.1,0.1c0.2,0.4,0.2,1,0.2,1.6v8.6
			c0,0.8-0.1,1.3-0.4,1.8c-0.2,0.4-0.7,0.8-1.5,1.3c-2.4,1.3-5.3,2.3-8.6,2.9c-3.3,0.6-6.6,0.9-10,0.9c-10,0-17.6-3.1-22.7-9.3
			c-5.1-6.2-7.7-15.3-7.7-27.3c0-4.5,0.6-8.9,1.7-13.3c1.1-4.3,2.9-8.2,5.2-11.6c2.3-3.4,5.2-6.2,8.8-8.3c3.6-2.1,7.8-3.1,12.6-3.1
			c4.9,0,9.1,1,12.6,2.9c3.4,1.9,6.2,4.5,8.4,7.8c2.2,3.3,3.8,7,4.7,11.4c1,4.3,1.5,9,1.5,13.9c0,0.6,0,1.3-0.1,2
			C974.6,71.4,974.6,72,974.6,72.3z M948.1,44.8c-2.2,0-4.1,0.5-5.8,1.5c-1.7,1-3.2,2.3-4.4,3.9c-1.2,1.6-2.2,3.4-3,5.5
			c-0.8,2.1-1.3,4.2-1.6,6.3H961c0-1.7-0.3-3.5-0.8-5.5c-0.5-2-1.3-3.9-2.4-5.6c-1.1-1.7-2.4-3.1-4-4.3
			C952.3,45.4,950.3,44.8,948.1,44.8z"/>
		<path class="st3" d="M1019.5,47.1c-1.6-0.4-3-0.7-4.2-0.8c-1.2-0.1-2.3-0.1-3.2,0.1c-2.4,0.5-4.4,1.6-5.9,3.2
			c-1.5,1.6-2.6,3.5-3.4,5.7c-0.8,2.2-1.3,4.5-1.5,7c-0.2,2.5-0.4,4.9-0.4,7.1v32.5c0,1.2-0.5,1.8-1.5,1.8h-10.1
			c-0.9,0-1.3-0.6-1.3-1.9V51.4c0-2.7,0-5.3-0.1-8c-0.1-2.7-0.1-5-0.1-7c0-0.8,0.1-1.2,0.4-1.4c0.2-0.2,0.6-0.3,1.2-0.3h10.1
			c0.6,0,0.9,0.1,1,0.3c0.1,0.2,0.1,0.5,0.1,0.9v5.6c0.6-1,1.3-2,2.2-3c0.9-1,1.9-1.9,3-2.7c1.1-0.8,2.2-1.4,3.3-1.9
			c1.1-0.5,2.2-0.7,3.2-0.7c1.5,0,2.9,0,4.2,0.1c1.3,0,2.6,0.5,3.9,1.3c0.4,0.2,0.6,0.4,0.7,0.8c0.1,0.4,0.1,0.7,0.1,1.1v9.4
			c0,0.3-0.1,0.7-0.4,1.1C1020.7,47.2,1020.2,47.3,1019.5,47.1z"/>
		<path class="st3" d="M1060.9,101.2c-4.4,3-9.5,4.5-15.5,4.5c-1.6,0-3.3-0.1-5.1-0.3c-1.8-0.2-3.5-0.4-5.2-0.6
			c-1.7-0.2-3.1-0.5-4.4-0.9c-1.3-0.3-2.3-0.7-3-1c-0.3-0.2-0.7-0.4-1-0.7c-0.4-0.3-0.5-0.8-0.4-1.4l0.7-8.1
			c0.1-0.8,0.2-1.3,0.4-1.5c0.2-0.2,0.7-0.1,1.6,0.1c2.7,0.8,5.4,1.4,8.3,1.8c2.9,0.4,5.4,0.6,7.7,0.6c3.6,0,6.2-0.9,7.9-2.8
			c1.7-1.8,2.6-4,2.6-6.4c0-1.3-0.4-2.7-1.3-4.1c-0.9-1.4-2.4-2.8-4.5-4.2c-2.2-1.3-4.4-2.7-6.8-4.1c-2.3-1.4-4.7-2.7-6.9-4.1
			c-2.6-1.6-4.8-3.7-6.5-6.3c-1.7-2.6-2.6-5.5-2.6-8.7c0-3.5,0.6-6.5,1.8-9.1c1.2-2.5,2.8-4.7,4.9-6.4c2-1.7,4.3-3,7-3.8
			c2.6-0.8,5.4-1.2,8.3-1.2c1.5,0,3.1,0.1,4.8,0.2c1.7,0.2,3.3,0.4,4.9,0.7c1.6,0.3,3,0.6,4.2,1c1.3,0.4,2.2,0.8,2.9,1.2
			c0.4,0.2,0.6,0.5,0.7,0.7c0,0.2,0,0.5-0.1,0.9l-0.7,8c-0.1,0.9-0.3,1.4-0.6,1.6c-0.3,0.1-0.9,0.1-1.8-0.1
			c-1.5-0.6-3.3-1.1-5.2-1.6c-1.1-0.2-2.3-0.3-3.6-0.5c-1.3-0.2-2.8-0.2-4.7-0.2c-3.3,0-5.7,0.8-7,2.4c-1.4,1.6-2.1,3.5-2.1,5.8
			c0,1.3,0.8,2.8,2.3,4.3c1.5,1.5,3.5,2.9,5.8,4.1c2.5,1.3,4.8,2.5,7,3.9c2.1,1.3,3.7,2.4,4.8,3.3c2.9,2.2,5.1,4.5,6.5,7.1
			c1.5,2.5,2.2,5.6,2.2,9.2C1069,91.5,1066.3,97.1,1060.9,101.2z"/>
	</g>
</g>
</svg>
